<?xml version="1.0" encoding="utf-8"?>
<!-- Generator: Adobe Illustrator 24.1.1, SVG Export Plug-In . SVG Version: 6.00 Build 0)  -->
<svg version="1.1" id="Capa_1" xmlns="http://www.w3.org/2000/svg" xmlns:xlink="http://www.w3.org/1999/xlink" x="0px" y="0px"
	 viewBox="0 0 400 300" style="enable-background:new 0 0 400 300;" xml:space="preserve" width="400px" height="300px">
<style type="text/css">
	.st0{display:none;}
	.st1{display:inline;opacity:0.2;fill:none;stroke:#3E5AFF;stroke-width:0.5;stroke-miterlimit:10;enable-background:new    ;}
	.st2{fill:none;stroke:#D8D8D8;stroke-width:0.25;stroke-miterlimit:10;}
</style>
<g id="maya" class="st0">
	<line class="st1" x1="19.9" y1="0" x2="19.9" y2="300"/>
	<line class="st1" x1="0" y1="0" x2="0" y2="300"/>
	<line class="st1" x1="39.8" y1="0" x2="39.8" y2="300"/>
	<line class="st1" x1="59.7" y1="0" x2="59.7" y2="300"/>
	<line class="st1" x1="79.7" y1="0" x2="79.7" y2="300"/>
	<line class="st1" x1="99.6" y1="0" x2="99.6" y2="300"/>
	<line class="st1" x1="119.5" y1="0" x2="119.5" y2="300"/>
	<line class="st1" x1="139.4" y1="0" x2="139.4" y2="300"/>
	<line class="st1" x1="159.3" y1="0" x2="159.3" y2="300"/>
	<line class="st1" x1="179.2" y1="0" x2="179.2" y2="300"/>
	<line class="st1" x1="199.1" y1="0" x2="199.1" y2="300"/>
	<line class="st1" x1="219.1" y1="0" x2="219.1" y2="300"/>
	<line class="st1" x1="239" y1="0" x2="239" y2="300"/>
	<line class="st1" x1="258.9" y1="0" x2="258.9" y2="300"/>
	<line class="st1" x1="278.8" y1="0" x2="278.8" y2="300"/>
	<line class="st1" x1="298.7" y1="0" x2="298.7" y2="300"/>
	<line class="st1" x1="318.6" y1="0" x2="318.6" y2="300"/>
	<line class="st1" x1="338.6" y1="0" x2="338.6" y2="300"/>
	<line class="st1" x1="358.5" y1="0" x2="358.5" y2="300"/>
	<line class="st1" x1="378.4" y1="0" x2="378.4" y2="300"/>
	<line class="st1" x1="400" y1="0.6" x2="0" y2="0.6"/>
	<line class="st1" x1="400" y1="20.6" x2="0" y2="20.6"/>
	<line class="st1" x1="400" y1="40.5" x2="0" y2="40.5"/>
	<line class="st1" x1="400" y1="60.4" x2="0" y2="60.4"/>
	<line class="st1" x1="400" y1="80.3" x2="0" y2="80.3"/>
	<line class="st1" x1="400" y1="100.2" x2="0" y2="100.2"/>
	<line class="st1" x1="400" y1="120.1" x2="0" y2="120.1"/>
	<line class="st1" x1="400" y1="140" x2="0" y2="140"/>
	<line class="st1" x1="400" y1="160" x2="0" y2="160"/>
	<line class="st1" x1="400" y1="179.9" x2="0" y2="179.9"/>
	<line class="st1" x1="400" y1="199.8" x2="0" y2="199.8"/>
	<line class="st1" x1="400" y1="219.7" x2="0" y2="219.7"/>
	<line class="st1" x1="400" y1="239.6" x2="0" y2="239.6"/>
	<line class="st1" x1="400" y1="259.5" x2="0" y2="259.5"/>
	<line class="st1" x1="400" y1="279.4" x2="0" y2="279.4"/>
	<line class="st1" x1="400" y1="299.4" x2="0" y2="299.4"/>
</g>
<line class="st2" x1="50" y1="0" x2="50" y2="300"/>
<line class="st2" x1="30" y1="300" x2="30" y2="0"/>
<line class="st2" x1="70" y1="0" x2="70" y2="300"/>
<line class="st2" x1="50" y1="300" x2="50" y2="0"/>
<line class="st2" x1="90" y1="0" x2="90" y2="300"/>
<line class="st2" x1="70" y1="300" x2="70" y2="0"/>
<line class="st2" x1="110" y1="0" x2="110" y2="300"/>
<line class="st2" x1="90" y1="300" x2="90" y2="0"/>
<line class="st2" x1="130" y1="0" x2="130" y2="300"/>
<line class="st2" x1="110" y1="300" x2="110" y2="0"/>
<line class="st2" x1="150" y1="0" x2="150" y2="300"/>
<line class="st2" x1="130" y1="300" x2="130" y2="0"/>
<line class="st2" x1="170" y1="0" x2="170" y2="300"/>
<line class="st2" x1="150" y1="300" x2="150" y2="0"/>
<line class="st2" x1="190" y1="0" x2="190" y2="300"/>
<line class="st2" x1="170" y1="300" x2="170" y2="0"/>
<line class="st2" x1="210" y1="0" x2="210" y2="300"/>
<line class="st2" x1="190" y1="300" x2="190" y2="0"/>
<line class="st2" x1="230" y1="0" x2="230" y2="300"/>
<line class="st2" x1="210" y1="300" x2="210" y2="0"/>
<line class="st2" x1="250" y1="0" x2="250" y2="300"/>
<line class="st2" x1="230" y1="300" x2="230" y2="0"/>
<line class="st2" x1="270" y1="0" x2="270" y2="300"/>
<line class="st2" x1="250" y1="300" x2="250" y2="0"/>
<line class="st2" x1="290" y1="0" x2="290" y2="300"/>
<line class="st2" x1="270" y1="300" x2="270" y2="0"/>
<line class="st2" x1="310" y1="0" x2="310" y2="300"/>
<line class="st2" x1="290" y1="300" x2="290" y2="0"/>
<line class="st2" x1="330" y1="0" x2="330" y2="300"/>
<line class="st2" x1="310" y1="300" x2="310" y2="0"/>
<line class="st2" x1="350" y1="0" x2="350" y2="300"/>
<line class="st2" x1="330" y1="300" x2="330" y2="0"/>
<line class="st2" x1="370" y1="0" x2="370" y2="300"/>
<line class="st2" x1="350" y1="300" x2="350" y2="0"/>
<line class="st2" x1="390" y1="0" x2="390" y2="300"/>
<line class="st2" x1="370" y1="300" x2="370" y2="0"/>
<line class="st2" x1="390" y1="300" x2="390" y2="0"/>
<line class="st2" x1="0" y1="30" x2="400" y2="30"/>
<line class="st2" x1="400" y1="50" x2="0" y2="50"/>
<line class="st2" x1="0" y1="50" x2="400" y2="50"/>
<line class="st2" x1="0" y1="10" x2="400" y2="10"/>
<line class="st2" x1="400" y1="70" x2="0" y2="70"/>
<line class="st2" x1="0" y1="70" x2="400" y2="70"/>
<line class="st2" x1="400" y1="90" x2="0" y2="90"/>
<line class="st2" x1="0" y1="90" x2="400" y2="90"/>
<line class="st2" x1="400" y1="110" x2="0" y2="110"/>
<line class="st2" x1="0" y1="110" x2="400" y2="110"/>
<line class="st2" x1="400" y1="130" x2="0" y2="130"/>
<line class="st2" x1="0" y1="130" x2="400" y2="130"/>
<line class="st2" x1="400" y1="150" x2="0" y2="150"/>
<line class="st2" x1="0" y1="150" x2="400" y2="150"/>
<line class="st2" x1="400" y1="170" x2="0" y2="170"/>
<line class="st2" x1="0" y1="170" x2="400" y2="170"/>
<line class="st2" x1="400" y1="190" x2="0" y2="190"/>
<line class="st2" x1="0" y1="190" x2="400" y2="190"/>
<line class="st2" x1="400" y1="210" x2="0" y2="210"/>
<line class="st2" x1="0" y1="210" x2="400" y2="210"/>
<line class="st2" x1="400" y1="230" x2="0" y2="230"/>
<line class="st2" x1="0" y1="230" x2="400" y2="230"/>
<line class="st2" x1="400" y1="250" x2="0" y2="250"/>
<line class="st2" x1="0" y1="250" x2="400" y2="250"/>
<line class="st2" x1="400" y1="270" x2="0" y2="270"/>
<line class="st2" x1="0" y1="270" x2="400" y2="270"/>
<line class="st2" x1="400" y1="290" x2="0" y2="290"/>
<line class="st2" x1="0" y1="290" x2="400" y2="290"/>
<line class="st2" x1="30" y1="0" x2="30" y2="300"/>
<line class="st2" x1="10" y1="0" x2="10" y2="300"/>
</svg>
