<?xml version="1.0" encoding="utf-8"?>
<!-- Generator: Adobe Illustrator 24.1.1, SVG Export Plug-In . SVG Version: 6.00 Build 0)  -->
<svg version="1.1" id="Capa_1" xmlns="http://www.w3.org/2000/svg" xmlns:xlink="http://www.w3.org/1999/xlink" x="0px" y="0px"
	 viewBox="0 0 400 300" style="enable-background:new 0 0 400 300;" xml:space="preserve" width="400px" height="300px">
<style type="text/css">
	.st0{opacity:0.7;fill:#FFFFFF;enable-background:new    ;}
	.st1{opacity:0.1;fill:#FF0000;enable-background:new    ;}
	.st2{opacity:0.8;fill:#FFFFFF;enable-background:new    ;}
	.st3{opacity:5.000000e-02;fill:#FF0000;enable-background:new    ;}
	.st4{fill:url(#SVGID_1_);}
	.st5{display:none;}
	.st6{display:inline;opacity:0.2;fill:none;stroke:#3E5AFF;stroke-width:0.5;stroke-miterlimit:10;enable-background:new    ;}
</style>
<rect x="119.5" class="st0" width="159.3" height="299.4"/>
<rect x="196.6" y="272.8" class="st1" width="6.8" height="27.2"/>
<rect x="196.6" y="122.8" class="st1" width="6.8" height="54.4"/>
<rect x="196.6" y="197.8" class="st1" width="6.8" height="54.4"/>
<rect x="196.6" class="st1" width="6.8" height="27.2"/>
<rect x="278.8" class="st2" width="3.3" height="299.4"/>
<rect x="100.7" y="284" class="st1" width="4.2" height="16"/>
<rect x="100.7" class="st1" width="4.2" height="15.4"/>
<rect x="100.7" y="134.3" class="st1" width="4.2" height="30.8"/>
<rect x="100.7" y="209.2" class="st1" width="4.2" height="30.8"/>
<rect x="116.2" class="st2" width="3.3" height="299.4"/>
<rect x="10" class="st3" width="80" height="300"/>
<rect x="196.6" y="47.8" class="st1" width="6.8" height="54.4"/>
<rect x="100.7" y="59.5" class="st1" width="4.2" height="30.8"/>
<rect x="100.7" y="22" class="st1" width="4.2" height="30.8"/>
<rect x="100.7" y="96.9" class="st1" width="4.2" height="30.8"/>
<rect x="100.7" y="171.7" class="st1" width="4.2" height="30.8"/>
<rect x="100.7" y="246.6" class="st1" width="4.2" height="30.8"/>
<linearGradient id="SVGID_1_" gradientUnits="userSpaceOnUse" x1="307.4649" y1="294.9787" x2="307.4649" y2="7.9554" gradientTransform="matrix(1 0 0 -1 0 302)">
	<stop  offset="2.237672e-07" style="stop-color:#FF0000;stop-opacity:0.15"/>
	<stop  offset="0.5" style="stop-color:#FF0000;stop-opacity:0.2"/>
	<stop  offset="1" style="stop-color:#FF0000;stop-opacity:0.15"/>
</linearGradient>
<rect x="304.8" class="st4" width="5.3" height="300"/>
<g id="maya" class="st5">
	<line class="st6" x1="19.9" y1="0" x2="19.9" y2="300"/>
	<line class="st6" x1="0" y1="0" x2="0" y2="300"/>
	<line class="st6" x1="39.8" y1="0" x2="39.8" y2="300"/>
	<line class="st6" x1="59.7" y1="0" x2="59.7" y2="300"/>
	<line class="st6" x1="79.7" y1="0" x2="79.7" y2="300"/>
	<line class="st6" x1="99.6" y1="0" x2="99.6" y2="300"/>
	<line class="st6" x1="119.5" y1="0" x2="119.5" y2="300"/>
	<line class="st6" x1="139.4" y1="0" x2="139.4" y2="300"/>
	<line class="st6" x1="159.3" y1="0" x2="159.3" y2="300"/>
	<line class="st6" x1="179.2" y1="0" x2="179.2" y2="300"/>
	<line class="st6" x1="199.1" y1="0" x2="199.1" y2="300"/>
	<line class="st6" x1="219.1" y1="0" x2="219.1" y2="300"/>
	<line class="st6" x1="239" y1="0" x2="239" y2="300"/>
	<line class="st6" x1="258.9" y1="0" x2="258.9" y2="300"/>
	<line class="st6" x1="278.8" y1="0" x2="278.8" y2="300"/>
	<line class="st6" x1="298.7" y1="0" x2="298.7" y2="300"/>
	<line class="st6" x1="318.6" y1="0" x2="318.6" y2="300"/>
	<line class="st6" x1="338.6" y1="0" x2="338.6" y2="300"/>
	<line class="st6" x1="358.5" y1="0" x2="358.5" y2="300"/>
	<line class="st6" x1="378.4" y1="0" x2="378.4" y2="300"/>
	<line class="st6" x1="400" y1="0.6" x2="0" y2="0.6"/>
	<line class="st6" x1="400" y1="20.6" x2="0" y2="20.6"/>
	<line class="st6" x1="400" y1="40.5" x2="0" y2="40.5"/>
	<line class="st6" x1="400" y1="60.4" x2="0" y2="60.4"/>
	<line class="st6" x1="400" y1="80.3" x2="0" y2="80.3"/>
	<line class="st6" x1="400" y1="100.2" x2="0" y2="100.2"/>
	<line class="st6" x1="400" y1="120.1" x2="0" y2="120.1"/>
	<line class="st6" x1="400" y1="140" x2="0" y2="140"/>
	<line class="st6" x1="400" y1="160" x2="0" y2="160"/>
	<line class="st6" x1="400" y1="179.9" x2="0" y2="179.9"/>
	<line class="st6" x1="400" y1="199.8" x2="0" y2="199.8"/>
	<line class="st6" x1="400" y1="219.7" x2="0" y2="219.7"/>
	<line class="st6" x1="400" y1="239.6" x2="0" y2="239.6"/>
	<line class="st6" x1="400" y1="259.5" x2="0" y2="259.5"/>
	<line class="st6" x1="400" y1="279.4" x2="0" y2="279.4"/>
	<line class="st6" x1="400" y1="299.4" x2="0" y2="299.4"/>
</g>
</svg>
