<?xml version="1.0" encoding="utf-8"?>
<!-- Generator: Adobe Illustrator 24.1.1, SVG Export Plug-In . SVG Version: 6.00 Build 0)  -->
<svg version="1.1" id="Capa_1" xmlns="http://www.w3.org/2000/svg" xmlns:xlink="http://www.w3.org/1999/xlink" x="0px" y="0px"
	 viewBox="0 0 400 300" style="enable-background:new 0 0 400 300;" xml:space="preserve" width="400px" height="300px">
<style type="text/css">
	.st0{fill:none;stroke:#3E5AFF;stroke-width:0.5;stroke-miterlimit:10;}
	.st1{opacity:0.14;fill:#3E5AFF;}
	.st2{opacity:0.14;fill:#FF4060;}
</style>
<line class="st0" x1="19.9" y1="0" x2="19.9" y2="300"/>
<line class="st0" x1="0" y1="0" x2="0" y2="300"/>
<line class="st0" x1="39.8" y1="0" x2="39.8" y2="300"/>
<line class="st0" x1="59.7" y1="0" x2="59.7" y2="300"/>
<line class="st0" x1="79.7" y1="0" x2="79.7" y2="300"/>
<line class="st0" x1="99.6" y1="0" x2="99.6" y2="300"/>
<line class="st0" x1="119.5" y1="0" x2="119.5" y2="300"/>
<line class="st0" x1="139.4" y1="0" x2="139.4" y2="300"/>
<line class="st0" x1="159.3" y1="0" x2="159.3" y2="300"/>
<line class="st0" x1="179.2" y1="0" x2="179.2" y2="300"/>
<line class="st0" x1="199.1" y1="0" x2="199.1" y2="300"/>
<line class="st0" x1="219.1" y1="0" x2="219.1" y2="300"/>
<line class="st0" x1="239" y1="0" x2="239" y2="300"/>
<line class="st0" x1="258.9" y1="0" x2="258.9" y2="300"/>
<line class="st0" x1="278.8" y1="0" x2="278.8" y2="300"/>
<line class="st0" x1="298.7" y1="0" x2="298.7" y2="300"/>
<line class="st0" x1="318.6" y1="0" x2="318.6" y2="300"/>
<line class="st0" x1="338.6" y1="0" x2="338.6" y2="300"/>
<line class="st0" x1="358.5" y1="0" x2="358.5" y2="300"/>
<line class="st0" x1="378.4" y1="0" x2="378.4" y2="300"/>
<line class="st0" x1="400" y1="0.6" x2="0" y2="0.6"/>
<line class="st0" x1="400" y1="20.6" x2="0" y2="20.6"/>
<line class="st0" x1="400" y1="40.5" x2="0" y2="40.5"/>
<line class="st0" x1="400" y1="60.4" x2="0" y2="60.4"/>
<line class="st0" x1="400" y1="80.3" x2="0" y2="80.3"/>
<line class="st0" x1="400" y1="100.2" x2="0" y2="100.2"/>
<line class="st0" x1="400" y1="120.1" x2="0" y2="120.1"/>
<line class="st0" x1="400" y1="140" x2="0" y2="140"/>
<line class="st0" x1="400" y1="160" x2="0" y2="160"/>
<line class="st0" x1="400" y1="179.9" x2="0" y2="179.9"/>
<line class="st0" x1="400" y1="199.8" x2="0" y2="199.8"/>
<line class="st0" x1="400" y1="219.7" x2="0" y2="219.7"/>
<line class="st0" x1="400" y1="239.6" x2="0" y2="239.6"/>
<line class="st0" x1="400" y1="259.5" x2="0" y2="259.5"/>
<line class="st0" x1="400" y1="279.4" x2="0" y2="279.4"/>
<line class="st0" x1="400" y1="299.4" x2="0" y2="299.4"/>
<rect x="135.1" class="st1" width="129.7" height="299.4"/>
<rect x="194.7" y="88.7" class="st2" width="10.6" height="54.4"/>
<rect x="194.7" y="20" class="st2" width="10.6" height="54.4"/>
<rect x="194.7" y="157.3" class="st2" width="10.6" height="54.4"/>
<rect x="194.7" y="226" class="st2" width="10.6" height="54.4"/>
</svg>
